<svg xmlns="http://www.w3.org/2000/svg" width="36.007" height="27.007" viewBox="0 0 36.007 27.007"><path d="M33.686,27.007H2.321A2.336,2.336,0,0,1,0,24.662V7.631A2.335,2.335,0,0,1,2.321,5.286H7.842a1.3,1.3,0,0,0,1.073-.569L11.483.928A2.67,2.67,0,0,1,13.352,0h9.3a2.658,2.658,0,0,1,1.867.928L27.08,4.7a1.342,1.342,0,0,0,1.108.589h5.5a2.335,2.335,0,0,1,2.321,2.344V24.662A2.336,2.336,0,0,1,33.686,27.007ZM18,7.634a8.219,8.219,0,1,0,8.13,8.219A8.185,8.185,0,0,0,18,7.634Zm9.874-.587a1.174,1.174,0,1,0,1.161,1.175A1.17,1.17,0,0,0,27.877,7.046ZM18,22.311a6.458,6.458,0,1,1,6.388-6.458A6.431,6.431,0,0,1,18,22.311ZM6.968,3.523H2.322V2.349A1.17,1.17,0,0,1,3.484,1.175H5.809a1.169,1.169,0,0,1,1.16,1.175V3.522Z" transform="translate(0 0)" fill="#f6f6f6"/></svg>