<svg xmlns="http://www.w3.org/2000/svg" xmlns:xlink="http://www.w3.org/1999/xlink" width="200.765" height="200.765" viewBox="0 0 200.765 200.765"><defs><radialGradient id="a" cx="0.5" cy="0.5" r="0.5" gradientUnits="objectBoundingBox"><stop offset="0" stop-color="#3a3a3a"/><stop offset="0.711"/><stop offset="1" stop-color="#171717"/></radialGradient><filter id="b" x="5.802" y="5.802" width="189.16" height="189.16" filterUnits="userSpaceOnUse"><feOffset input="SourceAlpha"/><feGaussianBlur stdDeviation="5" result="c"/><feFlood flood-color="#101010"/><feComposite operator="in" in2="c"/><feComposite in="SourceGraphic"/></filter><linearGradient id="d" x1="0.685" y1="0.727" x2="0.201" y2="0.13" gradientUnits="objectBoundingBox"><stop offset="0" stop-color="#1d1d1d"/><stop offset="1" stop-color="#141414"/></linearGradient><clipPath id="e"><path d="M95.1,34.785,87.864,47.3a4.29,4.29,0,0,0,3.682,6.4h11.7a1.331,1.331,0,1,0,0-2.663h-11.7a1.6,1.6,0,0,1-1.384-2.4l7.248-12.543a1.471,1.471,0,0,1,1.3-.77,1.5,1.5,0,0,1,1.328.77l9.678,16.942a1.337,1.337,0,0,0,1.819.488,1.311,1.311,0,0,0,.488-1.789l-9.7-16.949a4.169,4.169,0,0,0-7.218,0" transform="translate(-87.292 -32.703)"/></clipPath><clipPath id="f"><path d="M92.83,34.7l9.751,16.892a4.3,4.3,0,0,0,7.427,0l9.8-16.892a1.342,1.342,0,0,0-2.327-1.338l-9.8,16.9a1.611,1.611,0,0,1-2.812,0l-9.758-16.9a1.271,1.271,0,0,0-1.1-.664,1.34,1.34,0,0,0-1.178,2" transform="translate(-92.652 -32.697)"/></clipPath><clipPath id="g"><path d="M119.267,32.682h-6.4a5.222,5.222,0,0,0-4.509,2.613L98.809,51.958a1.334,1.334,0,0,0,2.281,1.3L110.665,36.6a2.556,2.556,0,0,1,2.2-1.275h7.168c5.066.332,4.884,8.061-.183,8.42h-6.58a2.644,2.644,0,0,0-1.049,5.066s11.185,4.841,11.185,4.867a1.343,1.343,0,0,0,1.026-2.48s-8.038-3.489-10.418-4.505a.146.146,0,0,1,.053-.282h6.1c3.529,0,6.291-3.43,6.218-6.992-.123-6.637-6.72-6.733-7.1-6.733Z" transform="translate(-98.693 -32.682)"/></clipPath></defs><g transform="translate(0 0)"><g fill="none"><path d="M100.382,0A100.382,100.382,0,0,1,200.765,100.382c0,37.533-20.6,70.254-51.588,87.746A100.39,100.39,0,1,1,100.382,0Z" stroke="none"/><path d="M 100.3824234008789 0.5 C 93.60520172119141 0.5 86.83237457275391 1.182754516601562 80.25209808349609 2.529281616210938 C 73.83932495117188 3.841506958007812 67.53147888183594 5.799575805664062 61.50382995605469 8.34906005859375 C 55.58549499511719 10.85231018066406 49.87722778320312 13.95065307617188 44.53756713867188 17.55805969238281 C 39.24850463867188 21.13128662109375 34.27490234375 25.23487854003906 29.75489807128906 29.75491333007812 C 25.23487854003906 34.27490234375 21.13127136230469 39.24850463867188 17.55804443359375 44.53758239746094 C 13.95065307617188 49.87722778320312 10.852294921875 55.58551025390625 8.349044799804688 61.50382995605469 C 5.799575805664062 67.53147888183594 3.84149169921875 73.83933258056641 2.529266357421875 80.25210571289062 C 1.182754516601562 86.83238220214844 0.5 93.60520935058594 0.5 100.3824310302734 C 0.5 107.1596527099609 1.182754516601562 113.9324798583984 2.529266357421875 120.5127563476562 C 3.84149169921875 126.9255294799805 5.799575805664062 133.2333831787109 8.349044799804688 139.2610321044922 C 10.852294921875 145.1793518066406 13.95065307617188 150.8876342773438 17.55804443359375 156.2272796630859 C 21.13127136230469 161.516357421875 25.23487854003906 166.4899597167969 29.75489807128906 171.0099487304688 C 34.27490234375 175.5299835205078 39.24850463867188 179.6335754394531 44.53756713867188 183.2068023681641 C 49.87722778320312 186.814208984375 55.58549499511719 189.9125518798828 61.50382995605469 192.4158020019531 C 67.53147888183594 194.9652862548828 73.83932495117188 196.9233551025391 80.25209808349609 198.2355804443359 C 86.83237457275391 199.5821075439453 93.60520172119141 200.2648620605469 100.3824234008789 200.2648620605469 C 117.5770492553711 200.2648620605469 134.364990234375 195.9175872802734 148.931396484375 187.6929779052734 C 164.3059692382812 179.0148620605469 177.1804504394531 166.5042724609375 186.1630249023438 151.5137786865234 C 190.7016906738281 143.939453125 194.2066955566406 135.8035888671875 196.5806732177734 127.3321304321289 C 199.0252990722656 118.6085052490234 200.2648468017578 109.5413055419922 200.2648468017578 100.3824310302734 C 200.2648468017578 93.60520935058594 199.5820922851562 86.83238220214844 198.2355804443359 80.25210571289062 C 196.9233551025391 73.83933258056641 194.9652709960938 67.53147888183594 192.4158020019531 61.50382995605469 C 189.9125518798828 55.58551025390625 186.8141937255859 49.87722778320312 183.2068023681641 44.53758239746094 C 179.6335754394531 39.24850463867188 175.5299682617188 34.27490234375 171.0099487304688 29.75491333007812 C 166.4899444580078 25.23487854003906 161.516357421875 21.13128662109375 156.2272644042969 17.55805969238281 C 150.8876190185547 13.95065307617188 145.1793518066406 10.85231018066406 139.2610168457031 8.34906005859375 C 133.2333679199219 5.799575805664062 126.9255218505859 3.841506958007812 120.5127487182617 2.529281616210938 C 113.9324722290039 1.182754516601562 107.1596450805664 0.5 100.3824234008789 0.5 M 100.3824234008789 0 C 155.8220977783203 0 200.7648468017578 44.9427490234375 200.7648468017578 100.3824310302734 C 200.7648468017578 137.9150848388672 180.1662750244141 170.6367034912109 149.1771697998047 188.1284027099609 C 135.101318359375 196.0760345458984 118.2894515991211 200.7648620605469 100.3824234008789 200.7648620605469 C 44.9427490234375 200.7648620605469 0 155.8221130371094 0 100.3824310302734 C 0 44.9427490234375 44.9427490234375 0 100.3824234008789 0 Z" stroke="none" fill="#000"/></g><g transform="matrix(1, 0, 0, 1, 0, 0)" filter="url(#b)"><g transform="translate(20.8 20.8)" fill="url(#a)"><path d="M 79.57994079589844 158.909912109375 C 74.19734191894531 158.909912109375 68.81819915771484 158.3676452636719 63.5919189453125 157.2982025146484 C 58.49860000610352 156.2559509277344 53.4886589050293 154.7007751464844 48.70122146606445 152.6758728027344 C 44.00065994262695 150.6876831054688 39.46694183349609 148.2268676757812 35.22600173950195 145.3617553710938 C 31.0252799987793 142.5237884521484 27.07509994506836 139.2646026611328 23.48520088195801 135.6746826171875 C 19.89529991149902 132.0847930908203 16.63610076904297 128.1346130371094 13.79816055297852 123.9339065551758 C 10.93304061889648 119.6929702758789 8.472220420837402 115.1592254638672 6.4840407371521 110.4586715698242 C 4.459120750427246 105.6712493896484 2.903960704803467 100.6612854003906 1.861700773239136 95.56797027587891 C 0.7922608256340027 90.34169006347656 0.2500008046627045 84.96254730224609 0.2500008046627045 79.57994842529297 C 0.2500008046627045 74.19734954833984 0.7922608256340027 68.81820678710938 1.861700773239136 63.59192657470703 C 2.903960704803467 58.49860763549805 4.459120750427246 53.48866653442383 6.4840407371521 48.70122909545898 C 8.472220420837402 44.00066757202148 10.93304061889648 39.46694946289062 13.79816055297852 35.22600936889648 C 16.63610076904297 31.02528762817383 19.89529991149902 27.07510757446289 23.48520088195801 23.48520851135254 C 27.07509994506836 19.89530754089355 31.0252799987793 16.6361083984375 35.22600173950195 13.79816818237305 C 39.46694183349609 10.93304824829102 44.00065994262695 8.472228050231934 48.70122146606445 6.484048366546631 C 53.4886589050293 4.459128379821777 58.49860000610352 2.903968334197998 63.5919189453125 1.861708402633667 C 68.81819915771484 0.7922684550285339 74.19734191894531 0.2500084340572357 79.57994079589844 0.2500084340572357 C 84.96253967285156 0.2500084340572357 90.34168243408203 0.7922684550285339 95.56796264648438 1.861708402633667 C 100.6612777709961 2.903968334197998 105.6712188720703 4.459128379821777 110.4586639404297 6.484048366546631 C 115.1592178344727 8.472228050231934 119.6929397583008 10.93304824829102 123.9338836669922 13.79816818237305 C 128.1345977783203 16.6361083984375 132.0847778320312 19.89530754089355 135.6746826171875 23.48520851135254 C 139.2645874023438 27.07510757446289 142.5237731933594 31.02528762817383 145.3617248535156 35.22600936889648 C 148.2268371582031 39.46694946289062 150.6876678466797 44.00066757202148 152.6758422851562 48.70122909545898 C 154.7007598876953 53.48866653442383 156.2559204101562 58.49860763549805 157.2981872558594 63.59192657470703 C 158.3676147460938 68.81820678710938 158.9098815917969 74.19734954833984 158.9098815917969 79.57994842529297 C 158.9098815917969 84.96254730224609 158.3676147460938 90.34169006347656 157.2981872558594 95.56797027587891 C 156.2559204101562 100.6612854003906 154.7007598876953 105.6712493896484 152.6758422851562 110.4586715698242 C 150.6876678466797 115.1592254638672 148.2268371582031 119.6929702758789 145.3617248535156 123.9339065551758 C 142.5237731933594 128.1346130371094 139.2645874023438 132.0847930908203 135.6746826171875 135.6746826171875 C 132.0847778320312 139.2646026611328 128.1345977783203 142.5237884521484 123.9338836669922 145.3617553710938 C 119.6929397583008 148.2268676757812 115.1592178344727 150.6876831054688 110.4586639404297 152.6758728027344 C 105.6712188720703 154.7007751464844 100.6612777709961 156.2559509277344 95.56796264648438 157.2982025146484 C 90.34168243408203 158.3676452636719 84.96253967285156 158.909912109375 79.57994079589844 158.909912109375 Z" stroke="none"/><path d="M 79.57994079589844 0.4999847412109375 C 74.21414184570312 0.4999847412109375 68.85186004638672 1.04052734375 63.64204406738281 2.10662841796875 C 58.56490325927734 3.145553588867188 53.57083892822266 4.695785522460938 48.79862213134766 6.71429443359375 C 44.11292266845703 8.6961669921875 39.59349822998047 11.14923095703125 35.36594390869141 14.00531005859375 C 31.17842102050781 16.8343505859375 27.24064636230469 20.08332824707031 23.6619873046875 23.6619873046875 C 20.08332824707031 27.24063110351562 16.83436584472656 31.17840576171875 14.00532531738281 35.36595153808594 C 11.14924621582031 39.593505859375 8.696182250976562 44.11290740966797 6.714279174804688 48.79862976074219 C 4.69580078125 53.57084655761719 3.145553588867188 58.56491088867188 2.106643676757812 63.64205169677734 C 1.040542602539062 68.85186767578125 0.5 74.21414947509766 0.5 79.57994842529297 C 0.5 84.94574737548828 1.040542602539062 90.30802917480469 2.106643676757812 95.51785278320312 C 3.145553588867188 100.5949859619141 4.69580078125 105.5890502929688 6.714279174804688 110.3612670898438 C 8.696182250976562 115.0469665527344 11.14924621582031 119.5663909912109 14.00532531738281 123.7939453125 C 16.83436584472656 127.9814682006836 20.08332824707031 131.9192504882812 23.6619873046875 135.4979095458984 C 27.24064636230469 139.0765686035156 31.17842102050781 142.3255310058594 35.36594390869141 145.1545715332031 C 39.59349822998047 148.0106506347656 44.11292266845703 150.4637145996094 48.79862213134766 152.4456024169922 C 53.57083892822266 154.4640808105469 58.56490325927734 156.0143280029297 63.64204406738281 157.0532531738281 C 68.85186004638672 158.1193542480469 74.21414184570312 158.6598815917969 79.57994079589844 158.6598815917969 C 84.94573974609375 158.6598815917969 90.30802154541016 158.1193542480469 95.51783752441406 157.0532531738281 C 100.5949859619141 156.0143280029297 105.5890426635742 154.4640808105469 110.3612594604492 152.4456024169922 C 115.0469589233398 150.4637145996094 119.5663757324219 148.0106506347656 123.7939453125 145.1545715332031 C 127.9814605712891 142.3255310058594 131.9192352294922 139.0765686035156 135.4978942871094 135.4979095458984 C 139.0765686035156 131.9192504882812 142.3255157470703 127.9814682006836 145.1545562744141 123.7939453125 C 148.0106353759766 119.5663909912109 150.4636993408203 115.0469665527344 152.4456024169922 110.3612670898438 C 154.4640808105469 105.5890502929688 156.0143280029297 100.5949859619141 157.0532379150391 95.51785278320312 C 158.1193389892578 90.30802917480469 158.6598815917969 84.94574737548828 158.6598815917969 79.57994842529297 C 158.6598815917969 74.21414947509766 158.1193389892578 68.85186767578125 157.0532379150391 63.64205169677734 C 156.0143280029297 58.56491088867188 154.4640808105469 53.57084655761719 152.4456024169922 48.79862976074219 C 150.4636993408203 44.11290740966797 148.0106353759766 39.593505859375 145.1545562744141 35.36595153808594 C 142.3255157470703 31.17840576171875 139.0765686035156 27.24063110351562 135.4978942871094 23.6619873046875 C 131.9192352294922 20.08332824707031 127.9814605712891 16.8343505859375 123.7939453125 14.00531005859375 C 119.5663757324219 11.14923095703125 115.0469589233398 8.6961669921875 110.3612594604492 6.71429443359375 C 105.5890426635742 4.695785522460938 100.5949859619141 3.145553588867188 95.51783752441406 2.10662841796875 C 90.30802154541016 1.04052734375 84.94573974609375 0.4999847412109375 79.57994079589844 0.4999847412109375 M 79.57994079589844 -1.52587890625e-05 C 123.5307159423828 -1.52587890625e-05 159.1598815917969 35.62916564941406 159.1598815917969 79.57994842529297 C 159.1598815917969 123.5307312011719 123.5307159423828 159.1598815917969 79.57994079589844 159.1598815917969 C 35.62915802001953 159.1598815917969 0 123.5307312011719 0 79.57994842529297 C 0 35.62916564941406 35.62915802001953 -1.52587890625e-05 79.57994079589844 -1.52587890625e-05 Z" stroke="none" fill="#000"/></g></g><path d="M52.2,0A52.2,52.2,0,1,1,0,52.2,52.2,52.2,0,0,1,52.2,0Z" transform="translate(48.142 48.185)" stroke="#000" stroke-width="0.5" fill="url(#d)"/><g transform="translate(67.684 85.29)"><g transform="translate(0 0.07)"><g clip-path="url(#e)"><rect width="33.246" height="31.422" transform="translate(-10.242 5.296) rotate(-30)"/></g></g><g transform="translate(17.799 10.606)"><g clip-path="url(#f)"><rect width="27.898" height="21.915" transform="translate(-0.38 -0.178)"/></g></g><g transform="translate(37.853)"><g clip-path="url(#g)"><rect width="32.989" height="35.375" transform="translate(-9.945 16.323) rotate(-60)"/></g></g></g></g></svg>