<svg xmlns="http://www.w3.org/2000/svg" xmlns:xlink="http://www.w3.org/1999/xlink" width="65.333" height="65.333" viewBox="0 0 65.333 65.333"><defs><linearGradient id="a" x1="0.5" x2="0.5" y2="1" gradientUnits="objectBoundingBox"><stop offset="0" stop-color="#fff"/><stop offset="1" stop-color="#fff"/></linearGradient><radialGradient id="d" cx="0.5" cy="0.5" r="0.5" gradientUnits="objectBoundingBox"><stop offset="0" stop-color="#fff"/><stop offset="0.544" stop-color="#e3e7f2"/><stop offset="1" stop-color="#fff"/></radialGradient><filter id="e" x="4.904" y="4.904" width="55.524" height="55.524" filterUnits="userSpaceOnUse"><feOffset dy="3" input="SourceAlpha"/><feGaussianBlur stdDeviation="3" result="f"/><feFlood flood-color="#fff"/><feComposite operator="in" in2="f"/><feComposite in="SourceGraphic"/></filter><linearGradient id="g" x1="0.5" y1="0.563" x2="0.201" y2="0.13" gradientUnits="objectBoundingBox"><stop offset="0" stop-color="#e3e7f2"/><stop offset="1" stop-color="#fff"/></linearGradient><filter id="h" x="0" y="0" width="65.333" height="65.333" filterUnits="userSpaceOnUse"><feOffset dy="3" input="SourceAlpha"/><feGaussianBlur stdDeviation="3" result="i"/><feFlood flood-color="#fff"/><feComposite operator="in" in2="i"/><feComposite in="SourceGraphic"/></filter><clipPath id="j"><path d="M89.134,33.194l-1.707,2.952a1.011,1.011,0,0,0,.868,1.508h2.758a.314.314,0,1,0,0-.628H88.295a.378.378,0,0,1-.326-.567L89.677,33.5a.347.347,0,0,1,.308-.182.353.353,0,0,1,.313.182L92.579,37.5a.315.315,0,0,0,.429.115.309.309,0,0,0,.115-.422l-2.288-4a.983.983,0,0,0-1.7,0" transform="translate(-87.292 -32.703)" fill="url(#a)"/></clipPath><clipPath id="l"><path d="M92.694,33.169l2.3,3.983a1.014,1.014,0,0,0,1.751,0l2.311-3.983a.316.316,0,0,0-.549-.315l-2.311,3.985a.38.38,0,0,1-.663,0l-2.3-3.985a.3.3,0,0,0-.259-.157.316.316,0,0,0-.278.472" transform="translate(-92.652 -32.697)" fill="url(#a)"/></clipPath><clipPath id="n"><path d="M103.544,32.682h-1.509a1.231,1.231,0,0,0-1.063.616L98.72,37.227a.315.315,0,0,0,.538.308l2.257-3.929a.6.6,0,0,1,.519-.3h1.69a1,1,0,0,1-.043,1.985H102.13a.623.623,0,0,0-.247,1.194s2.637,1.141,2.637,1.147a.317.317,0,0,0,.242-.585s-1.9-.823-2.456-1.062a.034.034,0,0,1,.013-.067h1.437a1.583,1.583,0,0,0,1.466-1.648,1.605,1.605,0,0,0-1.674-1.587Z" transform="translate(-98.693 -32.682)" fill="url(#a)"/></clipPath></defs><g transform="translate(105.17 54.17)"><g transform="translate(-96.17 -48.17)"><g transform="matrix(1, 0, 0, 1, -9, -6)" filter="url(#e)"><g transform="translate(13.9 10.9)" fill="url(#d)"><path d="M 18.76204490661621 37.27409362792969 C 16.26282501220703 37.27409362792969 13.8384952545166 36.78467559814453 11.55639457702637 35.81942367553711 C 9.352025032043457 34.88705444335938 7.372244834899902 33.5522346496582 5.672054767608643 31.85203552246094 C 3.971864938735962 30.1518440246582 2.637044906616211 28.17206573486328 1.704674959182739 25.96769523620605 C 0.7394248843193054 23.68559455871582 0.250004917383194 21.26126480102539 0.250004917383194 18.76204490661621 C 0.250004917383194 16.26282501220703 0.7394248843193054 13.8384952545166 1.704674959182739 11.55639457702637 C 2.637044906616211 9.352025032043457 3.971864938735962 7.372244834899902 5.672054767608643 5.672054767608643 C 7.372244834899902 3.971864938735962 9.352025032043457 2.637044906616211 11.55639457702637 1.704674959182739 C 13.8384952545166 0.7394248843193054 16.26282501220703 0.250004917383194 18.76204490661621 0.250004917383194 C 21.26126480102539 0.250004917383194 23.68559455871582 0.7394248843193054 25.96769523620605 1.704674959182739 C 28.17206573486328 2.637044906616211 30.1518440246582 3.971864938735962 31.85203552246094 5.672054767608643 C 33.5522346496582 7.372244834899902 34.88705444335938 9.352025032043457 35.81942367553711 11.55639457702637 C 36.78467559814453 13.8384952545166 37.27409362792969 16.26282501220703 37.27409362792969 18.76204490661621 C 37.27409362792969 21.26126480102539 36.78467559814453 23.68559455871582 35.81942367553711 25.96769523620605 C 34.88705444335938 28.17206573486328 33.5522346496582 30.1518440246582 31.85203552246094 31.85203552246094 C 30.1518440246582 33.5522346496582 28.17206573486328 34.88705444335938 25.96769523620605 35.81942367553711 C 23.68559455871582 36.78467559814453 21.26126480102539 37.27409362792969 18.76204490661621 37.27409362792969 Z" stroke="none"/><path d="M 18.76204490661621 0.4999961853027344 C 16.29646492004395 0.4999961853027344 13.90490531921387 0.9827766418457031 11.65378570556641 1.934913635253906 C 9.479215621948242 2.85467529296875 7.526144027709961 4.171516418457031 5.848825454711914 5.848825454711914 C 4.171516418457031 7.526144027709961 2.85467529296875 9.479215621948242 1.934913635253906 11.65378570556641 C 0.9827766418457031 13.90490531921387 0.4999961853027344 16.29646492004395 0.4999961853027344 18.76204490661621 C 0.4999961853027344 21.22762489318848 0.9827766418457031 23.61918449401855 1.934913635253906 25.87030410766602 C 2.85467529296875 28.04487609863281 4.171516418457031 29.99794387817383 5.848825454711914 31.67525482177734 C 7.526144027709961 33.35257339477539 9.479215621948242 34.66940307617188 11.65378570556641 35.58916473388672 C 13.90490531921387 36.54130554199219 16.29646492004395 37.02408599853516 18.76204490661621 37.02408599853516 C 21.22762489318848 37.02408599853516 23.61918449401855 36.54130554199219 25.87030410766602 35.58916473388672 C 28.04487609863281 34.66940307617188 29.99794387817383 33.35257339477539 31.67525482177734 31.67525482177734 C 33.35257339477539 29.99794387817383 34.66940307617188 28.04487609863281 35.58916473388672 25.87030410766602 C 36.54130554199219 23.61918449401855 37.02408599853516 21.22762489318848 37.02408599853516 18.76204490661621 C 37.02408599853516 16.29646492004395 36.54130554199219 13.90490531921387 35.58916473388672 11.65378570556641 C 34.66940307617188 9.479215621948242 33.35257339477539 7.526144027709961 31.67525482177734 5.848825454711914 C 29.99794387817383 4.171516418457031 28.04487609863281 2.85467529296875 25.87030410766602 1.934913635253906 C 23.61918449401855 0.9827766418457031 21.22762489318848 0.4999961853027344 18.76204490661621 0.4999961853027344 M 18.76204490661621 -3.814697265625e-06 C 29.1240348815918 -3.814697265625e-06 37.52408599853516 8.400054931640625 37.52408599853516 18.76204490661621 C 37.52408599853516 29.1240348815918 29.1240348815918 37.52408599853516 18.76204490661621 37.52408599853516 C 8.400054931640625 37.52408599853516 -3.814697265625e-06 29.1240348815918 -3.814697265625e-06 18.76204490661621 C -3.814697265625e-06 8.400054931640625 8.400054931640625 -3.814697265625e-06 18.76204490661621 -3.814697265625e-06 Z" stroke="none" fill="#e3e7f2"/></g></g><circle cx="12.306" cy="12.306" r="12.306" transform="translate(11.36 11.36)" stroke="#d9dde6" stroke-width="0.5" fill="url(#g)"/><g transform="matrix(1, 0, 0, 1, -9, -6)" filter="url(#h)"><g transform="translate(9 6)" fill="none"><path d="M23.667,0A23.667,23.667,0,1,1,0,23.667,23.667,23.667,0,0,1,23.667,0Z" stroke="none"/><path d="M 23.66651153564453 0.5 C 20.53883171081543 0.5 17.50497245788574 1.112449645996094 14.64921188354492 2.320331573486328 C 11.89062118530273 3.48712158203125 9.413051605224609 5.157581329345703 7.285312652587891 7.285312652587891 C 5.157581329345703 9.413051605224609 3.48712158203125 11.89062118530273 2.320331573486328 14.64921188354492 C 1.112449645996094 17.50497245788574 0.5 20.53883171081543 0.5 23.66651153564453 C 0.5 26.79419136047363 1.112449645996094 29.82805061340332 2.320331573486328 32.68381118774414 C 3.48712158203125 35.44240188598633 5.157581329345703 37.91997146606445 7.285312652587891 40.04771041870117 C 9.413051605224609 42.17544174194336 11.89062118530273 43.84590148925781 14.64921188354492 45.01269149780273 C 17.50497245788574 46.22057342529297 20.53883171081543 46.83302307128906 23.66651153564453 46.83302307128906 C 26.79419136047363 46.83302307128906 29.82805061340332 46.22057342529297 32.68381118774414 45.01269149780273 C 35.44240188598633 43.84590148925781 37.91997146606445 42.17544174194336 40.04771041870117 40.04771041870117 C 42.17544174194336 37.91997146606445 43.84590148925781 35.44240188598633 45.01269149780273 32.68381118774414 C 46.22057342529297 29.82805061340332 46.83302307128906 26.79419136047363 46.83302307128906 23.66651153564453 C 46.83302307128906 20.53883171081543 46.22057342529297 17.50497245788574 45.01269149780273 14.64921188354492 C 43.84590148925781 11.89062118530273 42.17544174194336 9.413051605224609 40.04771041870117 7.285312652587891 C 37.91997146606445 5.157581329345703 35.44240188598633 3.48712158203125 32.68381118774414 2.320331573486328 C 29.82805061340332 1.112449645996094 26.79419136047363 0.5 23.66651153564453 0.5 M 23.66651153564453 0 C 36.73715972900391 0 47.33302307128906 10.59586334228516 47.33302307128906 23.66651153564453 C 47.33302307128906 36.73715972900391 36.73715972900391 47.33302307128906 23.66651153564453 47.33302307128906 C 10.59586334228516 47.33302307128906 0 36.73715972900391 0 23.66651153564453 C 0 10.59586334228516 10.59586334228516 0 23.66651153564453 0 Z" stroke="none" fill="#e3e7f2"/></g></g><g transform="translate(15.957 20.108)"><g transform="translate(0 0.016)"><g clip-path="url(#j)"><rect width="7.838" height="7.408" transform="translate(-2.415 1.249) rotate(-30)" fill="url(#a)"/></g></g><g transform="translate(4.196 2.5)"><g clip-path="url(#l)"><rect width="6.577" height="5.167" transform="translate(-0.09 -0.042)" fill="url(#a)"/></g></g><g transform="translate(8.924 0)"><g clip-path="url(#n)"><rect width="7.778" height="8.34" transform="translate(-2.345 3.848) rotate(-60)" fill="url(#a)"/></g></g></g></g></g></svg>