<svg xmlns="http://www.w3.org/2000/svg" xmlns:xlink="http://www.w3.org/1999/xlink" width="130.876" height="50.974" viewBox="0 0 130.876 50.974"><defs><clipPath id="a"><rect width="130.876" height="50.974" fill="#313131"/></clipPath><clipPath id="b"><path d="M4.111,8.234a1.9,1.9,0,0,0-.766,2.576L14.058,30.581a5.473,5.473,0,0,0,9.679-.137l9.216-18.128a.93.93,0,0,1,1.757.423L34.7,31.531a1.9,1.9,0,1,0,3.8,0l0-18.792a4.729,4.729,0,0,0-8.939-2.152L20.354,28.717a1.676,1.676,0,0,1-2.96.048L6.687,9A1.9,1.9,0,0,0,5.014,8a1.877,1.877,0,0,0-.9.232" transform="translate(-3.115 -8.002)" fill="#313131"/></clipPath><clipPath id="c"><path d="M57.348,8.06A1.9,1.9,0,0,0,56.03,10.4l5.212,19.52a4.778,4.778,0,0,0,9.283-.278l.007-.039c.015-.08,1.812-8.453,3.376-16.824a1.188,1.188,0,0,1,2.335,0c1.588,8.419,3.146,16.75,3.163,16.833l.007.039a4.778,4.778,0,0,0,9.274.293L93.064,14.4a3.589,3.589,0,0,1,3.445-2.564l15.531-.025h0a.754.754,0,0,1,.436,1.369L95.695,25.157a4.559,4.559,0,0,0,2.563,8.276H114.7a1.9,1.9,0,0,0,.021-3.808h-16.4a.754.754,0,0,1-.432-1.369l16.786-11.977a4.553,4.553,0,0,0-2.633-8.267H96.5a7.4,7.4,0,0,0-7.081,5.308l-.007.027L85.03,28.918a.981.981,0,0,1-1.9-.043c-.091-.493-1.611-8.607-3.153-16.8a4.928,4.928,0,0,0-4.9-4.066h-.006a4.931,4.931,0,0,0-4.9,4.073c-1.52,8.145-3.273,16.3-3.367,16.788a.981.981,0,0,1-1.9.034L59.689,9.38a1.9,1.9,0,0,0-1.828-1.389,1.96,1.96,0,0,0-.513.069" transform="translate(-55.96 -7.991)" fill="#313131"/></clipPath><clipPath id="d"><path d="M35.186,20.715c0,7.493,5.109,12.7,12.508,12.7a13.729,13.729,0,0,0,8.993-3.064,1.46,1.46,0,0,0,.515-1.123,1.513,1.513,0,0,0-2.476-1.168,10.71,10.71,0,0,1-6.745,2.253A8.876,8.876,0,0,1,38.862,22.1a9.246,9.246,0,0,1,0-2.959c.525-4.868,3.964-8.018,8.785-8.018,4.382,0,7.437,2.5,8.219,6.491a1.281,1.281,0,0,1-1.259,1.527H43.3a1.48,1.48,0,1,0,0,2.959H54.919a4.19,4.19,0,0,0,4.117-5.02c-1.164-5.607-5.008-9.063-11.388-9.063-7.305.049-12.462,5.2-12.462,12.7" transform="translate(-35.186 -8.015)" fill="#313131"/></clipPath><clipPath id="e"><path d="M29.189,3.091A2.527,2.527,0,1,0,31.716.565a2.528,2.528,0,0,0-2.527,2.526" transform="translate(-29.189 -0.565)" fill="#313131"/></clipPath><clipPath id="f"><path d="M90.086,33.448,87.5,37.926a1.534,1.534,0,0,0,1.317,2.288H93a.476.476,0,1,0,0-.952H88.813a.573.573,0,0,1-.5-.86l2.592-4.486a.526.526,0,0,1,.467-.275.535.535,0,0,1,.475.275l3.462,6.06a.478.478,0,0,0,.651.175.469.469,0,0,0,.175-.64l-3.471-6.062a1.491,1.491,0,0,0-2.582,0" transform="translate(-87.292 -32.703)" fill="#313131"/></clipPath><clipPath id="g"><path d="M92.716,33.413,96.2,39.455a1.538,1.538,0,0,0,2.656,0l3.505-6.042a.48.48,0,0,0-.832-.479L98.027,38.98a.576.576,0,0,1-1.006,0l-3.49-6.046a.455.455,0,0,0-.393-.237.479.479,0,0,0-.422.716" transform="translate(-92.652 -32.697)" fill="#313131"/></clipPath><clipPath id="h"><path d="M106.052,32.682h-2.289a1.868,1.868,0,0,0-1.613.935l-3.415,5.96a.477.477,0,0,0,.816.467l3.425-5.961a.914.914,0,0,1,.787-.456h2.564a1.514,1.514,0,0,1-.065,3.011h-2.354a.946.946,0,0,0-.375,1.812s4,1.731,4,1.741a.48.48,0,0,0,.367-.887s-2.875-1.248-3.726-1.611a.052.052,0,0,1,.019-.1h2.18a2.4,2.4,0,0,0,2.224-2.5,2.435,2.435,0,0,0-2.54-2.408Z" transform="translate(-98.693 -32.682)" fill="#313131"/></clipPath></defs><g transform="translate(3.699 9.502)"><g clip-path="url(#b)"><rect width="38.802" height="30.375" transform="matrix(0.991, -0.134, 0.134, 0.991, -3.7, 0.082)" fill="#313131"/></g></g><g transform="translate(66.452 9.489)"><g clip-path="url(#c)"><rect width="64.112" height="33.482" transform="matrix(0.991, -0.134, 0.134, 0.991, -3.597, 0.458)" fill="#313131"/></g></g><g transform="translate(41.783 9.517)"><g clip-path="url(#d)"><rect width="27.573" height="28.437" transform="matrix(0.991, -0.134, 0.134, 0.991, -3.372, 0.456)" fill="#313131"/></g></g><g transform="translate(34.662 0.671)"><g clip-path="url(#e)"><rect width="5.686" height="5.686" transform="translate(-0.671 0.091) rotate(-7.7)" fill="#313131"/></g></g><g transform="translate(103.658 38.834)"><g clip-path="url(#f)"><rect width="11.891" height="11.239" transform="translate(-3.663 1.894) rotate(-30)" fill="#313131"/></g></g><g transform="translate(110.024 38.827)"><g clip-path="url(#g)"><rect width="9.978" height="7.839" transform="translate(-0.136 -0.064)" fill="#313131"/></g></g><g transform="translate(117.197 38.809)"><g clip-path="url(#h)"><rect width="11.799" height="12.653" transform="translate(-3.557 5.838) rotate(-60)" fill="#313131"/></g></g><path d="M82.29,37.7a2.274,2.274,0,0,1-2.317,2.445,2.04,2.04,0,0,1-1.892-1.07v1.043h-.718V33.267h.718V36.3a2.03,2.03,0,0,1,1.873-1.07A2.3,2.3,0,0,1,82.29,37.7m-.729-.019a1.742,1.742,0,1,0-1.735,1.828,1.722,1.722,0,0,0,1.735-1.828" transform="translate(14.505 6.237)" fill="#313131"/><path d="M82.683,41.619a1.529,1.529,0,0,1-1.022-.35l.3-.572a1.145,1.145,0,0,0,.683.23.978.978,0,0,0,.886-.7l.2-.461-2.014-4.818h.758l1.614,4.042,1.541-4.042h.739l-2.231,5.547a1.571,1.571,0,0,1-1.459,1.126" transform="translate(15.311 6.552)" fill="#313131"/></svg>